<?xml version="1.0" encoding="UTF-8"?>
<svg xmlns="http://www.w3.org/2000/svg" width="24pt" height="24pt" viewBox="0 0 24 24" version="1.1">
<g id="surface1">
<path style=" stroke:none;fill-rule:nonzero;fill:rgb(50.196078%,50.196078%,50.196078%);fill-opacity:1;" d="M 18.433594 17.71875 C 16.90625 17.71875 15.519531 18.335938 14.515625 19.335938 C 15.585938 20.050781 16.097656 21.386719 15.753906 23.28125 L 23.992188 23.28125 C 23.992188 20.210938 21.503906 17.71875 18.433594 17.71875 Z M 18.433594 17.71875 "/>
<path style=" stroke:none;fill-rule:nonzero;fill:rgb(50.196078%,50.196078%,50.196078%);fill-opacity:1;" d="M 12.261719 19.785156 C 10.332031 19.785156 8.765625 21.351562 8.765625 23.28125 L 15.753906 23.28125 C 15.753906 21.351562 14.191406 19.785156 12.261719 19.785156 Z M 12.261719 19.785156 "/>
<path style=" stroke:none;fill-rule:nonzero;fill:rgb(50.196078%,50.196078%,50.196078%);fill-opacity:1;" d="M 20.804688 2.15625 L 20.804688 0.78125 L 16.132812 0.78125 L 16.132812 2.15625 L 13.117188 2.15625 L 13.121094 2.800781 L 13.121094 12.101562 L 14.601562 13.554688 L 14.601562 3.6875 L 16.199219 3.6875 L 16.199219 16.128906 L 17.679688 16.128906 L 17.679688 3.6875 L 19.28125 3.6875 L 19.28125 16.128906 L 20.761719 16.128906 L 20.761719 3.6875 L 22.464844 3.6875 L 22.464844 17.175781 L 23.992188 18.507812 L 23.992188 2.15625 Z M 20.804688 2.15625 "/>
<path style=" stroke:none;fill-rule:nonzero;fill:rgb(50.196078%,50.196078%,50.196078%);fill-opacity:1;" d="M 12.261719 13.679688 L 5.191406 13.679688 L 4.410156 23.28125 L 7.238281 23.28125 C 7.238281 20.511719 9.492188 18.257812 12.261719 18.257812 C 12.625 18.257812 12.976562 18.296875 13.316406 18.371094 L 13.4375 18.253906 C 13.804688 17.890625 14.203125 17.574219 14.625 17.304688 L 14.625 16.128906 Z M 12.261719 13.679688 "/>
<path style=" stroke:none;fill-rule:nonzero;fill:rgb(50.196078%,50.196078%,50.196078%);fill-opacity:1;" d="M 0 9.953125 L 0 23.28125 L 4.394531 23.28125 L 4.394531 9.953125 L 2.179688 4.539062 Z M 3.328125 12.109375 C 3.328125 12.71875 2.835938 13.21875 2.222656 13.21875 C 1.609375 13.21875 1.113281 12.71875 1.113281 12.109375 C 1.113281 11.496094 1.609375 11 2.222656 11 C 2.835938 11 3.328125 11.496094 3.328125 12.109375 Z M 3.328125 12.109375 "/>
</g>
</svg>
