<svg xmlns="http://www.w3.org/2000/svg" data-name="Layer 2" viewBox="0 0 100 100" x="0px" y="0px"><title>infant car seat</title><path d="M11,70.68l-.84.52a2.84,2.84,0,0,0-1.33,1.87,2.89,2.89,0,0,0,.46,2.25L22.17,93.77A2.9,2.9,0,0,0,24.54,95H60.48a2.89,2.89,0,0,0,2.88-2.71c0-.19,1.32-19.33,13.58-31.59A25.19,25.19,0,0,0,84,44.8l8.07-5a2.9,2.9,0,0,0,1-4l-5.28-8.57a2.88,2.88,0,0,0-4-.95l-2.47,1.51A36.13,36.13,0,0,0,62,7.84c-8-3.38-21.39-5.44-39.72,4a2.89,2.89,0,0,0-1.45,3.4l5.29,17.72a2.9,2.9,0,0,0,3.35,2c.09,0,8.63-1.69,14,2.67,2.74,2.24,4.26,5.81,4.53,10.63L29.59,59.38l-.77-1.19,6.39-4.14a2.89,2.89,0,0,0,.85-4l-.6-.92a11.6,11.6,0,0,0-16-3.41l-7.62,4.94a11.59,11.59,0,0,0-3.41,16ZM72.85,56.61c-11,11-14.13,26.42-15,32.61H26.05L15.79,74.54,29,66.49A12.22,12.22,0,1,0,53.1,63.84l24.3-15A18.21,18.21,0,0,1,72.85,56.61Zm-26,6.69a6.56,6.56,0,1,1-9.34-1.9l.19-.1.94-.57a6.55,6.55,0,0,1,8.21,2.57ZM84.34,32.77l2.25,3.66-6.26,3.86a2.79,2.79,0,0,0-1.08.66L50.42,58.7a12.18,12.18,0,0,0-3.76-2.89ZM47,33.1c-5.33-4.34-12.34-4.49-16.1-4.18l-3.9-13c12.12-5.71,23.39-6.66,32.7-2.73A30.42,30.42,0,0,1,76.3,30.91l-22.93,14C52.57,39.86,50.45,35.88,47,33.1ZM15,55.51l7.61-4.94a5.82,5.82,0,0,1,6.82.36l-6.15,4a2.88,2.88,0,0,0-.85,4l2.25,3.47-8.71,5.3v0l-2.67-4.12A5.8,5.8,0,0,1,15,55.51Z"/></svg>