<svg xmlns="http://www.w3.org/2000/svg" x="0px" y="0px" viewBox="0 0 100 100" enable-background="new 0 0 100 100" xml:space="preserve"><path d="M43.772686,37.487175c0.1075592,0.0604057,0.2049637,0.1428375,0.3159676,0.1982536  c0.186554,0.0874252,0.3915215,0.1545448,0.5865059,0.231987c0.5109558,0.2049675,1.0353317,0.3713837,1.5932693,0.468792  c0.1192627,0.0218544,0.255394,0.0168648,0.379818,0.0352783c0.0370026,0.0067139,0.0789909,0.0067139,0.1209831,0.0134239  h1.0403252h0.900753c0.0419922-0.0067101,0.0908661-0.0067101,0.1328583-0.0134239  c0.1142731-0.0134239,0.2352562-0.0134239,0.3478088-0.0302887c0.7747803-0.134407,1.5025749-0.3662224,2.1949196-0.6973343  c2.0990639-1.0117569,3.7226219-2.8452759,4.4268417-5.1024933c0.0168648-0.0519753,0.0235786-0.1091118,0.0370026-0.1646957  c0.2049637-0.6957874,0.3209572-1.4301243,0.3393745-2.1949215c0-0.0571365,0.0101509-0.1091099,0.0101509-0.1646976  c0-0.6503525-0.0839806-1.2721386-0.2235527-1.8839417c-0.727623-3.1595211-3.2116661-5.6435642-6.3796234-6.3510532  c-0.5966568-0.134407-1.2151718-0.2185631-1.8553734-0.2185631c-2.6437454,0-4.9847794,1.2454624-6.5360565,3.1545315  c-1.1747322,1.4554214-1.9176712,3.2789574-1.9176712,5.2990265c0,0.8823395,0.1395683,1.7395535,0.3899689,2.5411797  C40.3409042,34.7258835,41.8415871,36.4535599,43.772686,37.487175z"/><path d="M36.419857,50.8532295c-0.1058426-0.0185852-0.2032471-0.0185852-0.300827-0.0320091  c-0.3159676-0.0469818-0.6503525-0.0369987-0.9528999-0.0906944c-0.4083824-0.0705605-0.79319-0.1832848-1.1848831-0.2806892  c1.384861,2.2453423,3.3546791,4.0922852,5.7041435,5.3494492c0.1865501,0.1058426,0.3579597,0.2469597,0.5529442,0.3445396  c0.3259506,0.1579857,0.6823654,0.2739792,1.0269012,0.4133759c0.8957634,0.3546906,1.8200951,0.6503525,2.8015633,0.8167725  c0.2084084,0.0404396,0.445385,0.0337296,0.6689377,0.065567c0.0638466,0.0101547,0.134407,0.0101547,0.2084084,0.0235786  c0,0,1.8670769,0.2183876,3.411644,0c0.0722809-0.0101547,0.1579857-0.0134239,0.2318153-0.0235786  c0.2001495-0.0251274,0.4118271-0.0251274,0.6118011-0.0554161c1.358017-0.2369766,2.6368675-0.6453629,3.8537598-1.2218857  c3.6856232-1.7781029,6.5358887-4.9947586,7.7746391-8.9593506c0.0268478-0.0924149,0.0385513-0.1949844,0.0638466-0.2891235  c0.3579636-1.2251549,0.5629311-2.5141563,0.5949402-3.8537598c0-0.1023941,0.0166931-0.1965332,0.0166931-0.2889481  c0-1.1428947-0.1461105-2.2386322-0.3932419-3.3075256c-0.3612289-1.5764046-0.9931679-3.0369911-1.8116608-4.3764191  c-0.0605774,0.2419701-0.0941353,0.5008011-0.1646957,0.7429428c-0.0352821,0.1309662-0.0504265,0.275528-0.0908661,0.4083862  c-1.7645073,5.6451111-5.8232346,10.2299385-11.0735588,12.7609634c-1.7343903,0.8234825-3.5596466,1.4032784-5.4922943,1.7428246  c-0.2824097,0.0419922-0.5849533,0.0419922-0.8723564,0.0789909c-0.1023979,0.0134239-0.2285423,0.0184135-0.3293915,0.0320091  h-2.2536049H36.419857z"/><path d="M64.8780975,18.541399c-7.1359863,12.7055511,4.6805115,17.3691959-0.1917114,31.2210827  c-3.1831017,9.0517654-16.9441223,19.6061096-32.3118324,6.0047951  C14.7850723,40.1995888,4.6256914,66.5148849,13.3499584,85.0490036h47.5635529l0.147831-0.0034409  c1.1831627,0.0285645,2.3730392-0.189827,3.4906387-0.6654968c0.0521393-0.0235825,0.0975723-0.0554199,0.1495514-0.0789948  c0.6639481-0.2973862,1.2974319-0.6823654,1.8890991-1.1630325c0.0469818-0.0402679,0.0906982-0.0638428,0.1326904-0.1008453  c0.4958115-0.4200897,0.9176178-0.8890533,1.2924423-1.3881302c0.6605072-0.8924942,1.1310196-1.8891068,1.4000092-2.9294281  l5.522583-13.5827255L95,13.1415234C95,13.1415234,73.4593506,3.262661,64.8780975,18.541399z"/></svg>