<svg xmlns:dc="http://purl.org/dc/elements/1.1/" xmlns:cc="http://creativecommons.org/ns#" xmlns:rdf="http://www.w3.org/1999/02/22-rdf-syntax-ns#" xmlns:svg="http://www.w3.org/2000/svg" xmlns="http://www.w3.org/2000/svg" xmlns:sodipodi="http://sodipodi.sourceforge.net/DTD/sodipodi-0.dtd" xmlns:inkscape="http://www.inkscape.org/namespaces/inkscape" viewBox="0 0 32 40.00000125" version="1.1" x="0px" y="0px"><g transform="translate(0,-1020.3622)"><path style="display:inline;opacity:1;fill:none;fill-opacity:1;fill-rule:evenodd;stroke:#000000;stroke-width:1;stroke-linecap:round;stroke-linejoin:round;stroke-miterlimit:4;stroke-dasharray:none;stroke-dashoffset:0;stroke-opacity:1" d="m 19.8105,1051.8622 c 1.1516,0 1.9912,-1.0059 1.9376,-2.0606 l -0.1876,-6.1894 0,-14.5 0.1894,-6.2509 c 0.033,-1.0941 -0.8447,-1.9991 -1.9394,-1.9991 -1.2179,0.018 -2.0077,1.0998 -1.9375,2.0606 l 0.1875,6.1894 0,14.5 -0.1894,6.2509 c -0.033,1.0941 0.8448,1.9991 1.9394,1.9991 z"/><path style="display:inline;opacity:1;fill:none;fill-opacity:1;fill-rule:evenodd;stroke:#000000;stroke-width:1;stroke-linecap:round;stroke-linejoin:round;stroke-miterlimit:4;stroke-dasharray:none;stroke-dashoffset:0;stroke-opacity:1" d="m 19.8097,1040.6122 c 0.9695,0 1.75,-0.7805 1.75,-1.75 l 0,-5 c 0,-0.9695 -0.7805,-1.75 -1.75,-1.75 -0.9695,0 -1.75,0.7805 -1.75,1.75 l 0,5 c 0,0.9695 0.7805,1.75 1.75,1.75 z"/><path style="display:inline;opacity:1;fill:none;fill-opacity:1;fill-rule:evenodd;stroke:#000000;stroke-width:1;stroke-linecap:butt;stroke-linejoin:miter;stroke-miterlimit:4;stroke-dasharray:none;stroke-dashoffset:0;stroke-opacity:1" d="m 21.5597,1034.3622 -3.5,0"/><path d="m 18.0597,1036.8622 c 0,0.9695 0.7805,1.75 1.75,1.75 0.9695,0 1.75,-0.7805 1.75,-1.75" style="opacity:1;fill:none;fill-opacity:1;fill-rule:evenodd;stroke:#000000;stroke-width:1;stroke-linecap:round;stroke-linejoin:round;stroke-miterlimit:4;stroke-dasharray:none;stroke-dashoffset:0;stroke-opacity:1"/><path d="m 12.1903,1051.8622 c 1.1516,0 1.9912,-1.0059 1.9376,-2.0606 l -0.1876,-6.1894 0,-14.5 0.1894,-6.2509 c 0.033,-1.0941 -0.8448,-1.9991 -1.9394,-1.9991 -1.2179,0.018 -2.0078,1.0998 -1.9376,2.0606 l 0.1876,6.1894 0,14.5 -0.1894,6.2509 c -0.033,1.0941 0.8448,1.9991 1.9394,1.9991 z" style="display:inline;opacity:1;fill:none;fill-opacity:1;fill-rule:evenodd;stroke:#000000;stroke-width:1;stroke-linecap:round;stroke-linejoin:round;stroke-miterlimit:4;stroke-dasharray:none;stroke-dashoffset:0;stroke-opacity:1"/><path d="m 12.1903,1040.6122 c 0.9695,0 1.75,-0.7805 1.75,-1.75 l 0,-5 c 0,-0.9695 -0.7805,-1.75 -1.75,-1.75 -0.9695,0 -1.75,0.7805 -1.75,1.75 l 0,5 c 0,0.9695 0.7805,1.75 1.75,1.75 z" style="display:inline;opacity:1;fill:none;fill-opacity:1;fill-rule:evenodd;stroke:#000000;stroke-width:1;stroke-linecap:round;stroke-linejoin:round;stroke-miterlimit:4;stroke-dasharray:none;stroke-dashoffset:0;stroke-opacity:1"/><path d="m 13.9403,1034.3622 -3.5,0" style="display:inline;opacity:1;fill:none;fill-opacity:1;fill-rule:evenodd;stroke:#000000;stroke-width:1;stroke-linecap:butt;stroke-linejoin:miter;stroke-miterlimit:4;stroke-dasharray:none;stroke-dashoffset:0;stroke-opacity:1"/><path style="opacity:1;fill:none;fill-opacity:1;fill-rule:evenodd;stroke:#000000;stroke-width:1;stroke-linecap:round;stroke-linejoin:round;stroke-miterlimit:4;stroke-dasharray:none;stroke-dashoffset:0;stroke-opacity:1" d="m 10.4403,1036.8622 c 0,0.9695 0.7805,1.75 1.75,1.75 0.9695,0 1.75,-0.7805 1.75,-1.75"/><path style="" d="m 4.25,1051.8551 0,-22.6565 a 3.4969968,3.5180297 0 0 1 0.3692,-1.5733 l 0.1276,-0.2567" fill="none" stroke="#000000" stroke-width="0.99999994px" stroke-linecap="round" stroke-linejoin="round" stroke-opacity="1"/><path style="" d="m 3.5071,1050.1122 1.4862,0" fill="none" stroke="#000000" stroke-width="0.99999994px" stroke-linecap="round" stroke-linejoin="round" stroke-opacity="1"/><path d="m 27.7499,1051.8551 0,-22.6565 a 3.4969968,3.5180297 0 0 0 -0.3691,-1.5733 l -0.1276,-0.2567" style="" fill="none" stroke="#000000" stroke-width="0.99999994px" stroke-linecap="round" stroke-linejoin="round" stroke-opacity="1"/><path d="m 28.4929,1050.1122 -1.4862,0" style="" fill="none" stroke="#000000" stroke-width="0.99999994px" stroke-linecap="round" stroke-linejoin="round" stroke-opacity="1"/></g><text x="0" y="47.000001" fill="#000000" font-size="5px" font-weight="bold" font-family="'Helvetica Neue', Helvetica, Arial-Unicode, Arial, Sans-serif">Created by anbileru adaleru</text><text x="0" y="52.000001" fill="#000000" font-size="5px" font-weight="bold" font-family="'Helvetica Neue', Helvetica, Arial-Unicode, Arial, Sans-serif">from the Noun Project</text></svg>