<?xml version="1.0" standalone="no"?>
<!DOCTYPE svg PUBLIC "-//W3C//DTD SVG 20010904//EN"
 "http://www.w3.org/TR/2001/REC-SVG-20010904/DTD/svg10.dtd">
<svg version="1.0" xmlns="http://www.w3.org/2000/svg"
 width="1073.000000pt" height="1280.000000pt" viewBox="0 0 1073.000000 1280.000000"
 preserveAspectRatio="xMidYMid meet">
<metadata>
Created by potrace 1.15, written by Peter Selinger 2001-2017
</metadata>
<g transform="translate(0.000000,1280.000000) scale(0.100000,-0.100000)"
fill="#000000" stroke="none">
<path d="M4200 12789 c-1637 -87 -2732 -589 -3412 -1564 -469 -673 -725 -1617
-755 -2787 l-6 -258 2310 0 2311 0 6 1808 c3 994 8 2033 11 2310 l6 502 -163
-1 c-90 -1 -228 -5 -308 -10z"/>
<path d="M9272 11138 c-10 -24 -310 -773 -668 -1665 l-649 -1621 -180 -6 c-99
-3 -1125 -8 -2280 -11 -4153 -10 -5405 -17 -5405 -30 0 -7 9 -34 20 -61 11
-27 218 -580 460 -1229 669 -1791 678 -1814 811 -2078 132 -263 258 -444 429
-618 284 -288 631 -463 1078 -543 270 -49 253 -48 1607 -53 818 -3 1386 -1
1575 6 425 16 680 52 922 131 464 152 740 423 987 967 41 90 2652 6595 2742
6831 l9 22 -721 0 -720 0 -17 -42z"/>
<path d="M7435 3229 c-642 -63 -1200 -526 -1380 -1145 -48 -168 -59 -255 -59
-459 1 -214 16 -314 80 -505 180 -540 641 -947 1203 -1061 127 -26 377 -36
507 -19 366 45 691 206 950 469 609 619 616 1606 15 2234 -338 354 -828 535
-1316 486z"/>
<path d="M1455 3203 c-578 -69 -1035 -384 -1287 -886 -258 -516 -216 -1122
113 -1617 85 -128 291 -334 419 -419 505 -336 1111 -372 1641 -99 417 214 728
618 830 1077 33 150 45 331 31 478 -22 232 -65 383 -167 588 -269 542 -837
890 -1440 883 -60 0 -123 -3 -140 -5z"/>
</g>
</svg>
